<svg xmlns="http://www.w3.org/2000/svg" width="960" height="659.8" viewBox="0 0 960 659.8" xmlns:xlink="http://www.w3.org/1999/xlink" role="img" artist="Katerina Limpitsouni" source="https://undraw.co/"><g transform="translate(-600.972 -237.368)"><path d="M28.864,0h592.2a28.864,28.864,0,0,1,28.864,28.864V374.54A28.864,28.864,0,0,1,621.061,403.4H28.864A28.864,28.864,0,0,1,0,374.54V28.864A28.864,28.864,0,0,1,28.864,0Z" transform="translate(650.32 474.655)" fill="#6c63ff"/><rect width="649.924" height="73.956" transform="translate(650.32 545.249)" fill="#6c63ff"/><path d="M0,0H649.924V73.956H0Z" transform="translate(650.32 545.249)" fill="#090814" opacity="0.199"/><path d="M17.928,0H508.736a17.928,17.928,0,1,1,0,35.855H17.928A17.928,17.928,0,0,1,17.928,0Z" transform="translate(711.957 674.117)" fill="#d6d6e3"/><circle cx="51.55" cy="51.55" r="51.55" transform="translate(704.104 748.074)" fill="#6c63ff"/><path d="M51.55,0A51.55,51.55,0,1,1,0,51.55,51.55,51.55,0,0,1,51.55,0Z" transform="translate(704.104 748.074)" fill="#090814" opacity="0.194"/><path d="M1006.83,716.43s21.686,27.258,26.7,26.7,16.683,10.564,10.017,13.961-45.046,5.561-63.986-8.9V726.4Z" transform="translate(466.712 118.129)" fill="#090814"/><path d="M913.387,717.86s-12.8,22.8-21.685,25.594-16.683,12.8-5,15.578,53.4-3.339,57.285-10.017V719.524Z" transform="translate(450.576 118.362)" fill="#090814"/><path d="M895.129,537.6l11.052,78.854v36.658a65.7,65.7,0,0,0,2,16.5c3.607,13.879.64,62.3-1.035,85.276-.547,7.492-.966,12.285-.966,12.285C913.406,763.836,944,774.4,944,774.4l3.095-10.529,2.466-8.376c6.678-5,1.163-94.548,0-115.175-.756-14.089,5.526-59.763,9.551-87.138,1.163-7.737,2.106-13.961,2.676-17.707.361-2.327.558-3.618.558-3.618a12.179,12.179,0,0,1,3,3.618,34.8,34.8,0,0,1,2.455,5.142C979,568.9,984.093,649.755,984.093,656.956v76.039a80.184,80.184,0,0,0,3.06,22.186,116.351,116.351,0,0,1,3.013,16.02c.791,6.038,3.179,6.875,3.179,6.875s34.224-9.449,35.4-10.9-2.374-130.241-2.374-130.241,1.664-50.026,6.678-99.562a177.627,177.627,0,0,0-6.4-66.988c-1.384-4.735-2.769-8.749-3.967-11.925-2.036-5.41-3.49-8.4-3.49-8.4H905.6c-1.908.361-3.49,4.2-4.921,10.028-.931,3.909-1.745,8.7-2.455,13.961-2.106,15.485-3.316,34.762-3.9,45.907a92.912,92.912,0,0,0,.8,17.649Z" transform="translate(452.768 74.608)" fill="#e6e6e6"/><path d="M929.179,341.591l-11.634,41.161s-12.239,11.634-22.244,0-16.171-42.824-16.776-49.5-9.458-41.16-12.8-41.16-36.7,2.222-40.6-11.634c-3.118-11.145,34.134-5.817,49.048-3.316a11.052,11.052,0,0,1,8.341,6.631l22.872,54.621S917.5,324.35,929.179,341.591Z" transform="translate(441.45 45.786)" fill="#ed9da0"/><path d="M15.408,102.163S20.116,83.5,18.662,64.838a34.307,34.307,0,1,1,33.765-1.408c-2.072,10.428-3.117,25.634,5.956,32.781,14.541,11.455-52,14.541-52,14.541Z" transform="translate(1388.869 263.154)" fill="#ed9da0"/><path d="M10.452,134.964C7.113,109.939,16.013,74.98,16.013,74.98l5-21.139S20.736,34.063.156,44.1c0,0-2.978-27.851,17.207-31.83a5.684,5.684,0,0,1,1.71-.116c4.316.454,24.431,1.908,30.876-8.993-.012.012,16.124,9.47,31.691,2.245,0,0,13.066-1.525,13.066-5.41l11.248,3.409a15.132,15.132,0,0,0,7.515,2h22.954a15.124,15.124,0,0,1,12.3,6.26c5.27,7.411,9.994,22.023-2.559,47.14C127.52,96.089,134.488,185.3,134.909,197.861c.021.632-4.59,2.192-4.59,2.192s-33.14,4.316-64.477,3.876c-21.389-.3-38.732-1-62.846,6.963C3,210.893,13.791,159.989,10.452,134.964Z" transform="translate(1346.275 340.261)" fill="#6c63ff"/><path d="M1034.58,354.318s-17.8,11.122-46.721,0c0,0-31.7-11.634-41.719-34.483s-33.366-47.873-33.366-47.873-40.6-15.578-38.392-31.144S921.1,258.06,921.1,258.06l17.8,16.683,57.843,48.944s12.8,0,16.683-2.781S1044.585,342.08,1034.58,354.318Z" transform="translate(449.514 39.737)" fill="#ed9da0"/><path d="M886.449,753.207c11.634,2.781,53.4-3.339,57.285-10.017v1.664c-3.9,6.678-45.6,12.8-57.285,10.017-4.77-1.163-6.294-3.49-5.817-6.038C881,750.717,882.749,752.276,886.449,753.207Z" transform="translate(450.536 122.501)" fill="#fff" opacity="0.4"/><rect width="59.507" height="1.256" transform="translate(1325.862 317.714) rotate(180)" fill="#8ed16f"/><rect width="59.507" height="1.256" transform="translate(1325.862 318.97) rotate(180)" fill="#8ed16f"/><rect width="59.507" height="1.256" transform="translate(1325.862 318.97) rotate(180)" fill="#090814" opacity="0.198"/><rect width="59.507" height="1.256" transform="translate(1325.862 320.227) rotate(180)" fill="#8ed16f"/><rect width="59.507" height="1.256" transform="translate(1325.862 321.472) rotate(180)" fill="#8ed16f"/><rect width="59.507" height="1.256" transform="translate(1325.862 321.472) rotate(180)" fill="#090814" opacity="0.198"/><rect width="59.507" height="1.256" transform="translate(1325.862 322.729) rotate(180)" fill="#8ed16f"/><rect width="59.507" height="1.256" transform="translate(1325.862 323.973) rotate(180)" fill="#8ed16f"/><rect width="59.507" height="1.256" transform="translate(1325.862 323.973) rotate(180)" fill="#090814" opacity="0.198"/><rect width="59.507" height="1.256" transform="translate(1325.862 325.23) rotate(180)" fill="#8ed16f"/><rect width="59.507" height="1.256" transform="translate(1325.862 326.474) rotate(180)" fill="#8ed16f"/><rect width="59.507" height="1.256" transform="translate(1325.862 326.474) rotate(180)" fill="#090814" opacity="0.198"/><rect width="59.507" height="1.256" transform="translate(1325.862 307.709) rotate(180)" fill="#8ed16f"/><rect width="59.507" height="1.256" transform="translate(1325.862 308.954) rotate(180)" fill="#8ed16f"/><rect width="59.507" height="1.256" transform="translate(1325.862 308.954) rotate(180)" fill="#090814" opacity="0.198"/><rect width="59.507" height="1.256" transform="translate(1325.862 310.222) rotate(180)" fill="#8ed16f"/><rect width="59.507" height="1.256" transform="translate(1325.862 311.467) rotate(180)" fill="#8ed16f"/><rect width="59.507" height="1.256" transform="translate(1325.862 311.467) rotate(180)" fill="#090814" opacity="0.198"/><rect width="59.507" height="1.256" transform="translate(1325.862 312.711) rotate(180)" fill="#8ed16f"/><rect width="59.507" height="1.256" transform="translate(1325.862 313.968) rotate(180)" fill="#8ed16f"/><rect width="59.507" height="1.256" transform="translate(1325.862 313.968) rotate(180)" fill="#090814" opacity="0.198"/><rect width="59.507" height="1.256" transform="translate(1325.862 315.213) rotate(180)" fill="#8ed16f"/><rect width="59.507" height="1.256" transform="translate(1325.862 316.469) rotate(180)" fill="#8ed16f"/><rect width="59.507" height="1.256" transform="translate(1325.862 316.469) rotate(180)" fill="#090814" opacity="0.198"/><rect width="21.685" height="42.266" transform="translate(1280.135 369.212) rotate(-169.48)" fill="#8ed16f"/><ellipse cx="8.9" cy="4.444" rx="8.9" ry="4.444" transform="translate(1267.635 354.528) rotate(-79.48)" fill="#8ed16f"/><ellipse cx="8.9" cy="4.444" rx="8.9" ry="4.444" transform="translate(1267.635 354.528) rotate(-79.48)" opacity="0.1"/><rect width="21.685" height="42.266" transform="translate(1283.783 456.924) rotate(-169.48)" fill="#8ed16f"/><ellipse cx="8.9" cy="4.444" rx="8.9" ry="4.444" transform="translate(1271.271 442.23) rotate(-79.48)" fill="#8ed16f"/><ellipse cx="8.9" cy="4.444" rx="8.9" ry="4.444" transform="translate(1271.271 442.23) rotate(-79.48)" opacity="0.1"/><rect width="21.685" height="42.266" transform="matrix(0.476, -0.879, 0.879, 0.476, 1175.022, 256.445)" fill="#8ed16f"/><ellipse cx="4.455" cy="8.921" rx="4.455" ry="8.921" transform="translate(1192.425 257.422) rotate(-61.39)" fill="#8ed16f"/><ellipse cx="4.455" cy="8.921" rx="4.455" ry="8.921" transform="translate(1192.425 257.422) rotate(-61.39)" opacity="0.1"/><rect width="21.685" height="42.266" rx="2" transform="matrix(0.476, -0.879, 0.879, 0.476, 1093.401, 632.827)" fill="#8ed16f"/><ellipse cx="4.444" cy="8.9" rx="4.444" ry="8.9" transform="matrix(0.476, -0.879, 0.879, 0.476, 1107.085, 633.276)" fill="#8ed16f"/><ellipse cx="4.444" cy="8.9" rx="4.444" ry="8.9" transform="matrix(0.476, -0.879, 0.879, 0.476, 1107.085, 633.276)" opacity="0.1"/><ellipse cx="4.444" cy="8.9" rx="4.444" ry="8.9" transform="matrix(0.476, -0.879, 0.879, 0.476, 1015.424, 524.506)" fill="#8ed16f"/><g transform="translate(1020.43 494.229) rotate(41)"><rect width="21.685" height="42.266" transform="matrix(0.476, -0.879, 0.879, 0.476, 0, 19.072)" fill="#8ed16f"/><ellipse cx="4.444" cy="8.9" rx="4.444" ry="8.9" transform="matrix(0.476, -0.879, 0.879, 0.476, 13.673, 19.504)" opacity="0.1"/></g><rect width="21.685" height="42.266" rx="2" transform="matrix(0.476, -0.879, 0.879, 0.476, 1106.054, 256.44)" fill="#8ed16f"/><ellipse cx="4.444" cy="8.9" rx="4.444" ry="8.9" transform="matrix(0.476, -0.879, 0.879, 0.476, 1119.727, 256.872)" fill="#8ed16f"/><ellipse cx="4.444" cy="8.9" rx="4.444" ry="8.9" transform="matrix(0.476, -0.879, 0.879, 0.476, 1119.727, 256.872)" opacity="0.1"/><rect width="21.685" height="42.266" transform="matrix(0.994, -0.109, 0.109, 0.994, 1157.311, 317.349)" fill="#8ed16f"/><ellipse cx="4.444" cy="8.9" rx="4.444" ry="8.9" transform="matrix(0.994, -0.109, 0.109, 0.994, 1164.716, 328.85)" fill="#8ed16f"/><ellipse cx="4.444" cy="8.9" rx="4.444" ry="8.9" transform="matrix(0.994, -0.109, 0.109, 0.994, 1164.716, 328.85)" opacity="0.1"/><rect width="21.685" height="42.266" rx="2" transform="matrix(0.994, -0.109, 0.109, 0.994, 1305.108, 547.418)" fill="#8ed16f"/><ellipse cx="4.444" cy="8.9" rx="4.444" ry="8.9" transform="matrix(0.994, -0.109, 0.109, 0.994, 1312.524, 558.92)" fill="#8ed16f"/><ellipse cx="4.444" cy="8.9" rx="4.444" ry="8.9" transform="matrix(0.994, -0.109, 0.109, 0.994, 1312.524, 558.92)" opacity="0.1"/><rect width="21.685" height="42.266" transform="matrix(0.476, -0.879, 0.879, 0.476, 1084.13, 423.312)" fill="#8ed16f"/><ellipse cx="4.444" cy="8.9" rx="4.444" ry="8.9" transform="matrix(0.476, -0.879, 0.879, 0.476, 1097.797, 423.761)" fill="#8ed16f"/><ellipse cx="4.444" cy="8.9" rx="4.444" ry="8.9" transform="matrix(0.476, -0.879, 0.879, 0.476, 1097.797, 423.761)" opacity="0.1"/><rect width="21.685" height="42.266" transform="matrix(0.476, -0.879, 0.879, 0.476, 990.329, 396.522)" fill="#8ed16f"/><ellipse cx="4.455" cy="8.921" rx="4.455" ry="8.921" transform="translate(1007.064 398.165) rotate(-61.39)" fill="#8ed16f"/><ellipse cx="4.455" cy="8.921" rx="4.455" ry="8.921" transform="translate(1007.064 398.165) rotate(-61.39)" opacity="0.1"/><rect width="21.686" height="42.266" rx="2" transform="translate(827.772 878.732) rotate(-118.42)" fill="#8ed16f"/><ellipse cx="4.444" cy="8.9" rx="4.444" ry="8.9" transform="translate(835.618 867.526) rotate(-118.42)" fill="#8ed16f"/><ellipse cx="4.444" cy="8.9" rx="4.444" ry="8.9" transform="translate(835.618 867.526) rotate(-118.42)" opacity="0.1"/><path d="M954.76,729.545H5.164c-3.077-.156-5.35-1.928-5.156-3.964-.2-2.016,2.074-3.788,5.156-3.943h949.6c2.711.22,4.85,1.639,5.184,3.432C960.377,727.264,958.072,729.255,954.76,729.545Z" transform="translate(600.977 155.89)" fill="#e6e6e6"/><rect width="21.685" height="42.266" rx="2" transform="translate(844.066 875.931) rotate(-100.51)" fill="#8ed16f"/><rect width="21.685" height="42.266" rx="2" transform="translate(844.066 875.931) rotate(-100.51)" opacity="0.05"/><ellipse cx="4.444" cy="8.9" rx="4.444" ry="8.9" transform="translate(854.97 867.678) rotate(-100.51)" fill="#8ed16f"/><ellipse cx="4.444" cy="8.9" rx="4.444" ry="8.9" transform="translate(854.97 867.678) rotate(-100.51)" opacity="0.1"/><rect width="21.685" height="42.266" rx="2" transform="translate(840.173 888.718) rotate(-100.51)" fill="#8ed16f"/><ellipse cx="4.444" cy="8.9" rx="4.444" ry="8.9" transform="translate(851.086 880.465) rotate(-100.51)" fill="#8ed16f"/><ellipse cx="4.444" cy="8.9" rx="4.444" ry="8.9" transform="translate(851.086 880.465) rotate(-100.51)" opacity="0.1"/><rect width="21.685" height="42.266" rx="2" transform="matrix(0.476, -0.879, 0.879, 0.476, 1256.538, 858.617)" fill="#8ed16f"/><ellipse cx="4.444" cy="8.9" rx="4.444" ry="8.9" transform="matrix(0.476, -0.879, 0.879, 0.476, 1270.223, 859.055)" fill="#8ed16f"/><ellipse cx="4.444" cy="8.9" rx="4.444" ry="8.9" transform="matrix(0.476, -0.879, 0.879, 0.476, 1270.223, 859.055)" opacity="0.1"/><rect width="21.685" height="42.266" rx="2" transform="translate(1235.869 868.207) rotate(-79.49)" fill="#8ed16f"/><rect width="21.685" height="42.266" rx="2" transform="translate(1235.869 868.207) rotate(-79.49)" opacity="0.05"/><ellipse cx="4.444" cy="8.9" rx="4.444" ry="8.9" transform="translate(1249.01 864.418) rotate(-79.49)" fill="#8ed16f"/><ellipse cx="4.444" cy="8.9" rx="4.444" ry="8.9" transform="translate(1249.01 864.418) rotate(-79.49)" opacity="0.1"/><rect width="21.685" height="42.266" rx="2" transform="translate(1239.76 881.008) rotate(-79.49)" fill="#8ed16f"/><ellipse cx="4.444" cy="8.9" rx="4.444" ry="8.9" transform="translate(1252.913 877.218) rotate(-79.49)" fill="#8ed16f"/><ellipse cx="4.444" cy="8.9" rx="4.444" ry="8.9" transform="translate(1252.913 877.218) rotate(-79.49)" opacity="0.1"/><rect width="21.685" height="42.266" rx="2" transform="matrix(0.476, -0.879, 0.879, 0.476, 1069.919, 867.063)" fill="#8ed16f"/><ellipse cx="4.444" cy="8.9" rx="4.444" ry="8.9" transform="matrix(0.476, -0.879, 0.879, 0.476, 1083.58, 867.495)" fill="#8ed16f"/><ellipse cx="4.444" cy="8.9" rx="4.444" ry="8.9" transform="matrix(0.476, -0.879, 0.879, 0.476, 1083.58, 867.495)" opacity="0.1"/><rect width="21.685" height="42.266" rx="2" transform="translate(1049.244 876.66) rotate(-79.49)" fill="#8ed16f"/><rect width="21.685" height="42.266" rx="2" transform="translate(1049.244 876.66) rotate(-79.49)" fill="#090814" opacity="0.05"/><ellipse cx="4.444" cy="8.9" rx="4.444" ry="8.9" transform="translate(1062.385 872.87) rotate(-79.49)" fill="#8ed16f"/><ellipse cx="4.444" cy="8.9" rx="4.444" ry="8.9" transform="translate(1062.385 872.87) rotate(-79.49)" opacity="0.1"/><rect width="21.685" height="42.266" rx="2" transform="translate(1053.136 889.458) rotate(-79.49)" fill="#8ed16f"/><ellipse cx="4.444" cy="8.9" rx="4.444" ry="8.9" transform="translate(1066.287 885.67) rotate(-79.49)" fill="#8ed16f"/><ellipse cx="4.444" cy="8.9" rx="4.444" ry="8.9" transform="translate(1066.287 885.67) rotate(-79.49)" opacity="0.1"/><path d="M1.649,4.237C2.971,2.186,5.185,2,7.426,1.886a43.907,43.907,0,0,1,7.5.308A121.106,121.106,0,0,1,29.893,5.374c8.5,2.144,17.294,4.164,26.069,2.541A30.093,30.093,0,0,0,69.034,1.952C69.919,1.262,68.676.035,67.8.718,60.326,6.539,50.979,7.57,41.851,6.189,32.059,4.707,22.7,1.012,12.782.233,8.614-.094,2.741-.677.142,3.356c-.61.947.9,1.823,1.507.881Z" transform="matrix(0.819, 0.574, -0.574, 0.819, 1261.111, 256.162)" fill="#d6d6e3"/><path d="M1.649,4.237C2.971,2.186,5.185,2,7.426,1.886a43.907,43.907,0,0,1,7.5.308A121.106,121.106,0,0,1,29.893,5.374c8.5,2.144,17.294,4.164,26.069,2.541A30.093,30.093,0,0,0,69.034,1.952C69.919,1.262,68.676.035,67.8.718,60.326,6.539,50.979,7.57,41.851,6.189,32.059,4.707,22.7,1.012,12.782.233,8.614-.094,2.741-.677.142,3.356c-.61.947.9,1.823,1.507.881Z" transform="matrix(0.819, 0.574, -0.574, 0.819, 1263.692, 239.154)" fill="#d6d6e3"/><path d="M42.987,51.408c-4.185.488-7.341-3.354-8.806-6.894s-2.58-7.674-6.218-9.589c-4.971-2.618-11.331.531-17.016-.333C4.528,33.614.354,27.522.028,21.7s2.26-11.43,4.8-16.8l.886,6.675A12.846,12.846,0,0,1,12.171,0L11.027,9.8a10.313,10.313,0,0,1,4.682-6.784A12.665,12.665,0,0,1,24.377,1.2L24.2,7.033a119.987,119.987,0,0,1,22.33-.978c7.436.6,14.925,2.71,20.562,7.1C75.513,19.72,78.6,30.522,77.566,40.49S71.943,59.814,67.158,68.862c-1.2,2.275-2.869,4.843-5.658,5.132a5.645,5.645,0,0,1-5.583-3.774,12.287,12.287,0,0,1,.067-6.709c.707-3.354,1.594-6.79.936-10.156s-3.367-6.69-7.153-7.1S42.107,49.717,42.987,51.408Z" transform="translate(1385.497 250.26)" fill="#090814"/></g></svg>